<?xml version="1.0" encoding="UTF-8"?>
<!DOCTYPE svg PUBLIC "-//W3C//DTD SVG 1.1//EN" "http://www.w3.org/Graphics/SVG/1.1/DTD/svg11.dtd">
<!-- Creator: CorelDRAW 2021.5 -->
<svg xmlns="http://www.w3.org/2000/svg" xml:space="preserve" width="700mm" height="400mm" version="1.1" style="shape-rendering:geometricPrecision; text-rendering:geometricPrecision; image-rendering:optimizeQuality; fill-rule:evenodd; clip-rule:evenodd"
viewBox="0 0 70000 40000"
 xmlns:xlink="http://www.w3.org/1999/xlink"
 xmlns:xodm="http://www.corel.com/coreldraw/odm/2003">
 <defs>
  <style type="text/css">
   <![CDATA[
    .str0 {stroke:#2B2A29;stroke-width:7.62;stroke-miterlimit:22.9256}
    .str3 {stroke:#E63E24;stroke-width:7.62;stroke-miterlimit:22.9256}
    .str1 {stroke:#2B2A29;stroke-width:7.62;stroke-linecap:round;stroke-linejoin:round;stroke-miterlimit:22.9256}
    .str2 {stroke:#E63E24;stroke-width:7.62;stroke-linecap:round;stroke-linejoin:round;stroke-miterlimit:22.9256}
    .fil0 {fill:none}
   ]]>
  </style>
 </defs>
 <g id="Слой_x0020_1">
  <metadata id="CorelCorpID_0Corel-Layer"/>
  <polygon class="fil0 str0" points="47467.79,18829.15 47467.79,20044.27 47667.79,20044.27 47667.79,20548.73 48155.29,20548.73 48155.29,20848.73 48905.29,20848.73 48905.29,20548.73 49392.79,20548.73 49392.79,18341.37 49542.79,18341.37 49692.79,18341.37 49692.79,20548.73 50180.29,20548.73 50180.29,20848.73 50930.29,20848.73 50930.29,20548.73 51417.79,20548.73 51417.79,20044.27 51617.79,20044.27 51617.79,18829.15 51152.73,18072.09 51408.36,17915.06 50937.27,17148.2 50681.65,17305.23 49692.79,15695.49 49692.79,14714.7 50105.3,14714.7 50105.3,14414.7 49692.79,14414.7 49692.79,13943.99 49392.79,13943.99 49392.79,14414.7 48980.28,14414.7 48980.28,14714.7 49392.79,14714.7 49392.79,15695.49 48403.93,17305.23 48148.31,17148.2 47677.22,17915.06 47932.85,18072.09 "/>
  <path class="fil0 str1" d="M42497.35 34040.76l0 -927.53 -645.02 0 0 927.53 645.02 0zm0 -1101.45l0 -840.55 -645.02 0 0 840.55 645.02 0zm0 -1014.47l0 -840.53 -645.02 0 0 840.53 645.02 0zm818.92 -1941.99l-645 0 0 927.54 645 0 0 -927.54zm-818.92 927.54l0 -927.54 -645.02 0 0 927.54 645.02 0zm173.92 173.92l0 840.53 645 0 0 -840.53 -645 0zm0 1014.45l0 840.55 645 0 0 -840.55 -645 0zm645 1014.47l-645 0 0 927.53 645 0 0 -927.53zm1690.91 927.53l0 -927.53 -645.02 0 0 927.53 645.02 0zm0 -1101.45l0 -840.55 -645.02 0 0 840.55 645.02 0zm0 -1014.47l0 -840.53 -645.02 0 0 840.53 645.02 0zm818.92 -1941.99l-645 0 0 927.54 645 0 0 -927.54zm-818.92 927.54l0 -927.54 -645.02 0 0 927.54 645.02 0zm173.92 173.92l0 840.53 645 0 0 -840.53 -645 0zm0 1014.45l0 840.55 645 0 0 -840.55 -645 0zm645 1014.47l-645 0 0 927.53 645 0 0 -927.53zm1690.91 927.53l0 -927.53 -645.02 0 0 927.53 645.02 0zm0 -1101.45l0 -840.55 -645.02 0 0 840.55 645.02 0zm0 -1014.47l0 -840.53 -645.02 0 0 840.53 645.02 0zm818.92 -1941.99l-645 0 0 927.54 645 0 0 -927.54zm-818.92 927.54l0 -927.54 -645.02 0 0 927.54 645.02 0zm173.92 173.92l0 840.53 645 0 0 -840.53 -645 0zm0 1014.45l0 840.55 645 0 0 -840.55 -645 0zm645 1014.47l-645 0 0 927.53 645 0 0 -927.53zm2383.21 -3801.73l0 5402.48 -11250 0 0 -5402.48 11250 0zm-600 600l0 -300 300 0 0 300 -300 0zm0 4502.48l0 -300 300 0 0 300 -300 0zm-10350 -4502.48l0 -300 300 0 0 300 -300 0zm0 4502.48l0 -300 300 0 0 300 -300 0z"/>
  <path class="fil0 str2" d="M41678.43 34214.67l0 -4405.7 1811.75 0 0 4405.7 -1811.75 0zm2509.83 0l0 -4405.7 1811.75 0 0 4405.7 -1811.75 0zm2509.83 0l0 -4405.7 1811.75 0 0 4405.7 -1811.75 0zm2534.11 -293.13l-193.7 0m60.77 0l0 -151.9m497.54 -11.41l-649.47 0 0 -121.51m531.73 121.51l0 -189.88m-9112.88 -238.75l387.38 0m-254.47 0l0 -151.89m-497.52 -11.42l649.47 0 0 -121.51m-531.74 121.51l0 -189.88m-284.85 0l565.9 0m444.52 -2238.39l-387.38 0m254.45 0l0 151.91m497.54 11.4l-649.47 0 0 121.51m531.73 -121.51l0 189.9m284.84 0l-565.9 0m9120.38 582.8l387.38 0m-254.47 0l0 151.9m-497.52 11.42l649.47 0 0 121.51m-531.75 -121.51l0 189.88m-284.84 0l565.9 0m-844.17 -1506.86l-193.7 0m60.78 0l0 151.9m497.53 11.41l-649.47 0 0 121.51m531.73 -121.51l0 189.88"/>
  <path class="fil0 str1" d="M60940.93 34040.76l0 -927.53 645.02 0 0 927.53 -645.02 0zm0 -1101.45l0 -840.55 645.02 0 0 840.55 -645.02 0zm0 -1014.47l0 -840.53 645.02 0 0 840.53 -645.02 0zm-818.92 -1941.99l645 0 0 927.54 -645 0 0 -927.54zm818.92 927.54l0 -927.54 645.02 0 0 927.54 -645.02 0zm-173.92 173.92l0 840.53 -645 0 0 -840.53 645 0zm0 1014.45l0 840.55 -645 0 0 -840.55 645 0zm-645 1014.47l645 0 0 927.53 -645 0 0 -927.53zm-1690.91 927.53l0 -927.53 645.02 0 0 927.53 -645.02 0zm0 -1101.45l0 -840.55 645.02 0 0 840.55 -645.02 0zm0 -1014.47l0 -840.53 645.02 0 0 840.53 -645.02 0zm-818.92 -1941.99l645 0 0 927.54 -645 0 0 -927.54zm818.92 927.54l0 -927.54 645.02 0 0 927.54 -645.02 0zm-173.92 173.92l0 840.53 -645 0 0 -840.53 645 0zm0 1014.45l0 840.55 -645 0 0 -840.55 645 0zm-645 1014.47l645 0 0 927.53 -645 0 0 -927.53zm-1690.91 927.53l0 -927.53 645.02 0 0 927.53 -645.02 0zm0 -1101.45l0 -840.55 645.02 0 0 840.55 -645.02 0zm0 -1014.47l0 -840.53 645.02 0 0 840.53 -645.02 0zm-818.92 -1941.99l645 0 0 927.54 -645 0 0 -927.54zm818.92 927.54l0 -927.54 645.02 0 0 927.54 -645.02 0zm-173.92 173.92l0 840.53 -645 0 0 -840.53 645 0zm0 1014.45l0 840.55 -645 0 0 -840.55 645 0zm-645 1014.47l645 0 0 927.53 -645 0 0 -927.53zm-2383.21 -3801.73l0 5402.48 11250 0 0 -5402.48 -11250 0zm600 600l0 -300 -300 0 0 300 300 0zm0 4502.48l0 -300 -300 0 0 300 300 0zm10350 -4502.48l0 -300 -300 0 0 300 300 0zm0 4502.48l0 -300 -300 0 0 300 300 0z"/>
  <path class="fil0 str2" d="M61759.85 34214.67l0 -4405.7 -1811.75 0 0 4405.7 1811.75 0zm-2509.83 0l0 -4405.7 -1811.75 0 0 4405.7 1811.75 0zm-2509.83 0l0 -4405.7 -1811.75 0 0 4405.7 1811.75 0zm-2534.11 -293.13l193.7 0m-60.77 0l0 -151.9m-497.54 -11.41l649.47 0 0 -121.51m-531.73 121.51l0 -189.88m9112.88 -238.75l-387.38 0m254.47 0l0 -151.89m497.52 -11.42l-649.47 0 0 -121.51m531.74 121.51l0 -189.88m284.85 0l-565.9 0m-444.52 -2238.39l387.38 0m-254.45 0l0 151.91m-497.54 11.4l649.47 0 0 121.51m-531.73 -121.51l0 189.9m-284.84 0l565.9 0m-9120.38 582.8l-387.38 0m254.47 0l0 151.9m497.52 11.42l-649.47 0 0 121.51m531.75 -121.51l0 189.88m284.84 0l-565.9 0m844.17 -1506.86l193.7 0m-60.78 0l0 151.9m-497.53 11.41l649.47 0 0 121.51m-531.73 -121.51l0 189.88"/>
  <path class="fil0 str0" d="M37552 12901.78l-178.73 240.95 -1857.51 -1377.86 0 3081.66 -300 0 0 300 300 0 0 4202.48 -300 0 0 300 300 0 0 300 3450 0 0 -300 300 0 0 -300 -300 0 0 -4202.48 300 0 0 -300 -300 0 0 -522.53 -990.12 -734.45 178.73 -240.95 -602.37 -446.82zm38.41 3368.76c0,-211.51 -173.05,-384.55 -384.55,-384.55 -211.5,0 -384.55,173.05 -384.55,384.55l0 748.65 769.1 0 0 -748.65z"/>
  <path class="fil0 str3" d="M35637.67 14433.27l3231.63 0m-3231.63 -225l3083.42 0m-3083.42 3035.91l3231.63 0m-3231.63 -225l955.64 0 0 -748.65c0,-337.34 275.2,-612.54 612.55,-612.54 337.34,0 612.54,275.21 612.54,612.54l0 748.65 1050.9 0m-1536.41 2512.44l193.7 0m-60.77 0l0 -151.89m-497.53 -11.42l649.47 0 0 -121.51m-531.73 121.51l0 -189.88m911.5 -990.29l-387.38 0m254.48 0l0 -151.9m497.51 -11.41l-649.47 0 0 -121.51m531.75 121.51l0 -189.88m284.84 0l-565.9 0m-1422.64 328.76l387.39 0m-254.46 0l0 151.92m-497.53 11.4l649.47 0 0 121.51m-531.73 -121.51l0 189.89m-284.84 0l565.9 0m-131.9 -3755.47l1651.01 0m-627.11 591.14l1127.17 0m-2762.26 202.61l944.57 0m1428.73 515.93l301.63 0m-2492.38 -2412.99l1270.01 0m-952.51 -682.62l476.26 0"/>
  <path class="fil0 str0" d="M30879.52 12901.78l178.73 240.95 1857.51 -1377.86 0 3081.66 300 0 0 300 -300 0 0 4202.48 300 0 0 300 -300 0 0 300 -3450 0 0 -300 -300 0 0 -300 300 0 0 -4202.48 -300 0 0 -300 300 0 0 -522.53 990.12 -734.45 -178.73 -240.95 602.37 -446.82zm-38.4 3368.76c0,-211.51 173.05,-384.55 384.55,-384.55 211.5,0 384.55,173.05 384.55,384.55l0 748.65 -769.1 0 0 -748.65z"/>
  <path class="fil0 str3" d="M32793.86 14433.27l-3231.63 0m3231.63 -225l-3083.42 0m3083.42 3035.91l-3231.63 0m3231.63 -225l-955.64 0 0 -748.65c0,-337.34 -275.21,-612.54 -612.55,-612.54 -337.34,0 -612.55,275.21 -612.55,612.54l0 748.65 -1050.89 0m1536.4 2512.44l-193.7 0m60.78 0l0 -151.89m497.53 -11.42l-649.47 0 0 -121.51m531.73 121.51l0 -189.88m-911.51 -990.29l387.39 0m-254.48 0l0 -151.9m-497.51 -11.41l649.47 0 0 -121.51m-531.75 121.51l0 -189.88m-284.85 0l565.91 0m1422.63 328.76l-387.38 0m254.46 0l0 151.92m497.53 11.4l-649.47 0 0 121.51m531.73 -121.51l0 189.89m284.84 0l-565.9 0m-225.35 -3668.16l952.5 0m-2667 381l1365.26 0m428.62 333.37l714.38 0m-2674.13 396.88l460.37 0m531 -2127.24l1206.5 0m-190.5 -666.75l841.38 0"/>
  <path class="fil0 str0" d="M35655.91 27666.75l-178.73 240.95 -2520.68 -1869.78 178.74 -240.95 -602.37 -446.82 -178.74 240.95 -909.45 -674.62 -909.47 674.62 -178.73 -240.95 -602.37 446.82 178.73 240.95 -2520.67 1869.78 -178.74 -240.95 -602.37 446.82 178.74 240.95 -990.12 734.45 0 522.53 -300 0 0 300 300 0 0 4202.48 -300 0 0 300 300 0 0 300c3750,0 7500,0 11250,0l0 -300 300 0 0 -300 -300 0 0 -4202.48 300 0 0 -300 -300 0 0 -522.53 -990.13 -734.45 178.73 -240.95 -602.37 -446.82zm-3992.48 3185.19l452.57 -837.92c245.7,197.53 403.77,500.31 403.77,837.92l-856.34 0zm-716.29 -947.36l497.54 947.36 497.53 -947.36c-272.54,-170.6 -722.53,-170.6 -995.07,0zm610.04 3428.74l0 908.16 962.59 0 0 -908.16 -962.59 0zm2900.66 -2297.81c0,-211.51 -173.05,-384.55 -384.55,-384.55 -211.5,0 -384.55,173.05 -384.55,384.55l0 748.65 769.1 0 0 -748.65zm1650.95 0c0,-211.51 -173.05,-384.55 -384.54,-384.55 -211.51,0 -384.55,173.05 -384.55,384.55l0 748.65 769.09 0 0 -748.65zm-4882.87 -183.57l-452.57 -837.92c-245.7,197.53 -403.77,500.31 -403.77,837.92l856.34 0zm106.26 2481.38l-962.6 0 0 908.16 962.6 0 0 -908.16zm-2900.67 -2297.81c0,-211.51 173.05,-384.55 384.55,-384.55 211.5,0 384.55,173.05 384.55,384.55l0 748.65 -769.1 0 0 -748.65zm-1650.95 0c0,-211.51 173.05,-384.55 384.55,-384.55 211.5,0 384.55,173.05 384.55,384.55l0 748.65 -769.1 0 0 -748.65zm7416.11 -2472.15l0 -246.06 -246.06 0 0 -317.5 246.06 0 0 -246.06 317.5 0 0 246.06 246.06 0 0 317.5 -246.06 0 0 246.06 -317.5 0zm-5503.99 0l0 -246.06 246.07 0 0 -317.5 -246.07 0 0 -246.06 -317.5 0 0 246.06 -246.06 0 0 317.5 246.06 0 0 246.06 317.5 0zm3573.15 -2060.59l-637.07 447.62 447.63 -637.06c71.01,54.72 134.73,118.43 189.44,189.44zm-560.81 631.71l767.05 -133.96c11.45,88.61 11.45,179.32 0,267.92l-767.05 -133.96zm371.37 821.15l-447.62 -637.06 637.06 447.63c-54.71,71.01 -118.43,134.72 -189.44,189.43zm-631.71 -560.81l133.96 767.05c-88.6,11.45 -179.32,11.45 -267.92,0l133.96 -767.05zm-821.15 371.38l637.07 -447.63 -447.63 637.06c-71.01,-54.71 -134.73,-118.42 -189.44,-189.43zm560.81 -631.72l-767.05 133.96c-11.45,-88.6 -11.45,-179.31 0,-267.92l767.05 133.96zm-371.37 -821.15l447.62 637.07 -637.06 -447.63c54.71,-71.01 118.43,-134.72 189.44,-189.44zm631.71 560.82l-133.96 -767.06c88.6,-11.44 179.32,-11.44 267.92,0l-133.96 767.06zm112.5 5319.77l0 908.17 962.59 0 0 -908.17 -962.59 0zm-225 0l-962.6 0 0 908.17 962.6 0 0 -908.17zm225 -1139.39l0 908.16 962.59 0 0 -908.16 -962.59 0zm-225 0l-962.6 0 0 908.16 962.6 0 0 -908.16z"/>
  <path class="fil0 str3" d="M36973.21 29198.25c-3685.69,0 -7371.38,0 -11057.07,0m8586.38 3317.43l193.7 0m-60.77 0l0 151.89m-497.54 11.42l649.47 0 0 121.51m-531.73 -121.51l0 189.88m1801.62 901.56l-387.39 0m254.48 0l0 151.89m497.51 11.42l-649.47 0 0 121.51m531.75 -121.51l0 189.88m284.85 0l-565.91 0m-1822.2 242.68l387.39 0m-254.46 0l0 -151.92m-497.53 -11.39l649.47 0 0 -121.51m-531.73 121.51l0 -189.9m-284.85 0l565.91 0m-4066.46 -3161.15c0,-701.83 574.22,-1276.05 1276.05,-1276.05 701.82,0 1276.05,574.22 1276.05,1276.05l0 3590.49 -2552.1 0 0 -3590.49zm6656.38 -1878.69l-10760.66 0m6656.38 3035.91l4252.48 0m-4252.48 -225l968.01 0m769.1 0l881.86 0m769.09 0l864.42 0m-3512.47 0l0 -748.65c0,-337.35 275.21,-612.55 612.55,-612.55 337.34,0 612.55,275.21 612.55,612.55l0 748.65m425.86 0l0 -748.65c0,-337.35 275.2,-612.55 612.54,-612.55 337.35,0 612.55,275.21 612.55,612.55l0 748.65m-6168.16 225l-4252.49 0m4252.49 -225l-968.02 0m-769.1 0l-881.85 0m-769.1 0l-864.42 0m3512.47 0l0 -748.65c0,-337.35 -275.21,-612.55 -612.55,-612.55 -337.34,0 -612.55,275.21 -612.55,612.55l0 748.65m-425.85 0l0 -748.65c0,-337.35 -275.21,-612.55 -612.55,-612.55 -337.34,0 -612.55,275.21 -612.55,612.55l0 748.65m1312.01 2443.73l-193.7 0m60.78 0l0 -151.9m497.53 -11.42l-649.47 0 0 -121.51m531.73 121.51l0 -189.87m-1323.53 -921.59l387.38 0m-254.48 0l0 -151.9m-497.51 -11.41l649.47 0 0 -121.51m-531.75 121.51l0 -189.88m-284.84 0l565.9 0m2345.45 344.68l-387.38 0m254.45 0l0 151.92m497.54 11.39l-649.47 0 0 121.51m531.73 -121.51l0 189.9m284.84 0l-565.9 0m4835.33 -4734.45l0 -18.06 -18.06 0c-125.58,0 -228,-102.42 -228,-228l0 -317.5c0,-125.58 102.42,-228 228,-228l18.06 0 0 -18.06c0,-125.58 102.42,-228 228,-228l317.5 0c125.58,0 228,102.42 228,228l0 18.06 18.06 0c125.58,0 228,102.42 228,228l0 317.5c0,125.58 -102.42,228 -228,228l-18.06 0 0 18.06c0,125.58 -102.42,228 -228,228l-317.5 0c-125.58,0 -228,-102.42 -228,-228zm-1761.15 -2436.63c74.15,52.14 192.83,170.78 244.92,244.92 72.34,102.99 47.1,246.15 -56.1,318.07l-175.32 123.19c46.41,-8.11 211.03,-40.73 252.91,-40.4 113.78,0.93 209.81,86.13 224.36,199.56 11.43,89.07 18.12,283.68 -9.73,367.94 -35.42,107.17 -144.78,172.71 -256.76,152.86l-210.77 -36.81 175.94 123.62c109.05,76.63 127.83,227.53 45.53,330.75 -62.58,78.48 -153.14,174.31 -234.99,231.81 -102.98,72.34 -246.14,47.11 -318.07,-56.1l-123.19 -175.32c8.11,46.41 40.74,211.03 40.4,252.91 -0.92,113.78 -86.13,209.82 -199.55,224.37 -89.08,11.43 -283.68,18.12 -367.95,-9.74 -107.16,-35.42 -172.71,-144.78 -152.85,-256.75l36.81 -210.78 -123.63 175.94c-76.62,109.05 -227.53,127.84 -330.75,45.53 -78.48,-62.58 -174.3,-153.13 -231.81,-234.99 -72.34,-102.98 -47.1,-246.14 56.1,-318.07l175.34 -123.2c-46.58,8.14 -211.77,40.79 -253.19,40.4 -113.74,-1.05 -209.8,-86.4 -224.14,-199.87 -11.39,-90.15 -18.68,-288.14 11.52,-372.71 37.29,-104.4 144.94,-167.27 255.27,-147.72l210.51 36.77 -175.94 -123.62c-109.05,-76.63 -127.83,-227.54 -45.53,-330.75 62.58,-78.48 153.14,-174.31 234.99,-231.81 102.98,-72.35 246.14,-47.11 318.07,56.1l123.19 175.33c-8.13,-46.57 -40.77,-211.78 -40.39,-253.19 1.05,-113.74 86.41,-209.8 199.87,-224.14 90.15,-11.39 288.15,-18.67 372.71,11.52 104.41,37.29 167.27,144.95 147.72,255.27l-36.77 210.51 123.63 -175.93c72.2,-102.75 214.89,-127.67 317.64,-55.47zm-4060.33 2436.63l0 -18.06 -18.07 0c-125.58,0 -228,-102.42 -228,-228l0 -317.5c0,-125.58 102.42,-228 228,-228l18.07 0 0 -18.06c0,-125.58 102.42,-228 228,-228l317.5 0c125.58,0 228,102.42 228,228l0 18.06 18.06 0c125.58,0 228,102.42 228,228l0 317.5c0,125.58 -102.42,228 -228,228l-18.06 0 0 18.06c0,125.58 -102.42,228 -228,228l-317.5 0c-125.58,0 -228,-102.42 -228,-228zm5261.74 1126l2794 0m-8536.81 -71.5l2103.38 0m-3678.95 452.5l2698.75 0m4222.76 111.13l1238.25 0"/>
  <path class="fil0 str0" d="M18598.34 33813.99l-750 0 -0.01 300 750 -0.01 0.01 -299.99zm3888.45 0l-750 0 0 300 749.99 -0.01 0.01 -299.99zm-3888.45 -10050.01l0.01 -300 -750 0.01 -0.01 300 750 -0.01zm5020.8 1720.04l0 9229.96 -7587.53 0c-399,0 -399,-936.65 0,-911.72 -399,0 -399,-936.65 0,-911.43 -399,0 -399,-936.64 0,-911.43 -399,0 -399,-936.65 0,-911.44 -399,0 -399,-936.64 0,-911.44 -399,0 -398.99,-936.64 0,-911.43 -399,0 -398.99,-936.64 0.01,-911.72 -399,0 -399,-936.64 0,-911.43 -399,0 -399,-936.64 0,-911.43 -399,0 -399,-936.65 0,-911.44 -399,0 -399,-936.64 0,-911.44 -399,0 -399,-936.64 0,-911.44 -399,0 -399,-936.62 0,-911.7l4876.75 -0.5 0 2624.54 2710.77 -4.51z"/>
  <path class="fil0 str3" d="M16118.93 33802.26l1040.41 0m1666.87 0l2025.33 0m-4732.61 -911.43l7034.48 0m-7034.48 -911.44l2017.98 0m-2017.98 -911.44l7436.71 0m-7436.71 -1822.86l5542.24 0m-4407.18 911.43l3867.42 0m-5002.48 -2734.59l4970.74 0m-3672.03 911.44l6010.55 0m-7309.26 -2734.3l3953.56 0m-3253.2 911.43l6012.18 0m-5662.93 -1822.87l3308.08 0m-1722.44 -911.43l2106.96 0m-1216.1 8203.19l3556 0m-7082.11 -3646.02l557.49 0m5603.87 1823.15l1275.35 0m-902.28 3645.74l902.28 0m-7404.29 -10026.07l1513.8 0"/>
  <path class="fil0 str0" d="M10866.38 33813.99l750 0 0.01 300 -750 -0.01 -0.01 -299.99zm-3888.45 0l750 0 0 300 -749.99 -0.01 -0.01 -299.99zm3888.46 -10050.01l-0.01 -300 750 0.01 0.01 300 -750 -0.01zm-5020.8 1720.04l-0.01 9229.96 7587.53 0c399,0 399,-936.65 0,-911.72 399,0 399,-936.65 0,-911.43 399,0 399,-936.64 0,-911.43 399,0 399,-936.65 0,-911.44 399,0 399,-936.64 0,-911.44 399,0 399,-936.64 0,-911.43 399,0 399,-936.64 0,-911.72 399,0 399,-936.64 0,-911.43 399,0 399,-936.64 0,-911.43 399,0 399,-936.65 0,-911.44 399,0 399,-936.64 0,-911.44 399,0 399,-936.64 0,-911.44 399,0 399,-936.62 0,-911.7l-4876.75 -0.5 0 2624.54 -2710.77 -4.51z"/>
  <path class="fil0 str3" d="M13345.79 33802.26l-1040.4 0m-1666.88 0l-2025.33 0m4732.61 -911.43l-7034.48 0m7034.48 -911.44l-2017.98 0m2017.98 -911.44l-7436.71 0m7436.71 -1822.86l-5542.23 0m4407.17 911.43l-3867.42 0m5002.49 -2734.59l-4970.74 0m3672.03 911.44l-6010.55 0m7309.26 -2734.3l-3953.56 0m3253.2 911.43l-6012.18 0m5662.92 -1822.87l-3308.07 0m1722.43 -911.43l-2106.96 0m1216.1 8203.19l-3556 0m7082.12 -3646.02l-557.49 0m-5603.88 1823.15l-1275.35 0m902.29 3645.74l-902.29 0m7404.29 -10026.07l-1513.8 0"/>
  <path class="fil0 str0" d="M64999.24 17698.73l-4350.02 0 0 300 300 0 0 2550 -300 0 0 300 4350.02 0 0 -300 -300 0 0 -2550 300 0 0 -300zm-2519.72 2131.83l-530.33 530.33 -212.14 -212.14 530.33 -530.33 212.14 212.14zm1431.89 -1431.89l-530.33 530.33 -212.14 -212.14 530.33 -530.33 212.14 212.14zm-742.47 1431.89l530.33 530.33 212.14 -212.14 -530.33 -530.33 -212.14 212.14zm-1431.89 -1431.89l530.33 530.33 212.14 -212.14 -530.33 -530.33 -212.14 212.14z"/>
  <path class="fil0 str0" d="M43397.22 17802.68l-149.99 0 -0.01 -900 150 0 150 0 -0.01 900 -149.99 0zm0 3046.05c-79.11,0 -147.07,-38.27 -188.1,-105.91l-1588.66 -2619.19 1626.76 -3110.15 150 0 150 0 1626.76 3110.15 -1588.66 2619.19c-41.03,67.64 -108.99,105.91 -188.1,105.91z"/>
  <path class="fil0 str0" d="M54205.41 20044.27l0 -1215.12 465.06 -757.06 -255.63 -157.03 471.09 -766.86 255.62 157.03 988.86 -1609.74 0 2645.88 300 0 0 -2645.88 988.86 1609.74 255.62 -157.03 471.09 766.86 -255.63 157.03 465.06 757.06 0 1215.12 -200 0 0 504.46 -487.5 0 0 300 -750 0 0 -300c-1274.61,0 -0.39,0 -1275,0l0 300 -750 0 0 -300 -487.5 0 0 -504.46 -200 0z"/>
  <path class="fil0 str0" d="M43397.22 7558.42l-149.99 0 -0.01 -900 150 0 150 0 -0.01 900 -149.99 0zm0 3046.05c-79.11,0 -147.07,-38.27 -188.1,-105.91l-1588.66 -2619.19 1626.76 -3110.15 150 0 150 0 1626.76 3110.15 -1588.66 2619.19c-41.03,67.64 -108.99,105.91 -188.1,105.91z"/>
  <path class="fil0 str0" d="M48950.74 7558.42l-149.99 0 -0.01 -900 150 0 150 0 -0.01 900 -149.99 0zm0 3046.05c-79.11,0 -147.07,-38.27 -188.1,-105.91l-1588.66 -2619.19 1626.76 -3110.15 150 0 150 0 1626.76 3110.15 -1588.66 2619.19c-41.03,67.64 -108.99,105.91 -188.1,105.91z"/>
  <path class="fil0 str0" d="M54504.26 7558.42l-149.99 0 -0.01 -900 150 0 150 0 -0.01 900 -149.99 0zm0 3046.05c-79.11,0 -147.07,-38.27 -188.1,-105.91l-1588.66 -2619.19 1626.76 -3110.15 150 0 150 0 1626.76 3110.15 -1588.66 2619.19c-41.03,67.64 -108.99,105.91 -188.1,105.91z"/>
  <path class="fil0 str3" d="M25665.37 16932.59l0 -189.87m-117.75 189.87l649.47 0 0 -121.51m-151.93 284.83l0 -151.9m-132.93 151.9l193.7 0m589.82 1349.89l-565.9 0m281.05 189.88l0 -189.88m117.73 189.88l-649.47 0 0 -121.51m151.95 284.82l0 -151.89m132.91 151.89l-387.38 0m640.49 -11906.05l-1274.99 -1508.16 -1274.99 1508.16m2849.98 0l-1574.99 -1852.48 -1574.99 1852.48m610.89 1398.05l-267.33 82.12 267.33 82.12 0 -164.24zm2651.59 2366.74l-3374.99 0m3374.99 -225l-3374.99 0m1605.41 -1095.48l164.17 0 -82.08 267.21 -82.09 -267.21zm-1149.34 -964.14c0,-680.11 551.33,-1231.44 1231.43,-1231.45 680.1,0.01 1231.42,551.34 1231.42,1231.45 0,680.11 -551.32,1231.44 -1231.42,1231.45 -680.1,-0.01 -1231.43,-551.34 -1231.43,-1231.45zm1149.34 -964.14l164.17 0 -82.08 -267.21 -82.09 267.21zm1046.19 882.02l267.32 82.12 -267.32 82.12 0 -164.24z"/>
  <path class="fil0 str3" d="M20667.12 6892.94l-1274.99 -1508.16 -1274.99 1508.16m2849.98 0l-1574.99 -1852.48 -1574.99 1852.48m32.56 9887.3l0 -189.88m-117.74 189.88l649.47 0 0 -121.51m-151.94 284.82l0 -151.89m-132.93 151.89l193.7 0m589.82 1349.9l-565.9 0m281.06 189.87l0 -189.87m117.72 189.87l-649.47 0 0 -121.51m151.95 284.83l0 -151.9m132.91 151.9l-387.38 0m467.06 -10355.65l-267.32 82.12 267.32 82.12 0 -164.24zm2651.6 2366.74l-3374.99 0m3374.99 -225l-3374.99 0m1605.4 -1095.48l164.18 0 -82.08 267.21 -82.1 -267.21zm-1149.33 -964.14c0,-680.11 551.33,-1231.44 1231.43,-1231.45 680.1,0.01 1231.42,551.34 1231.42,1231.45 0,680.11 -551.32,1231.44 -1231.42,1231.45 -680.1,-0.01 -1231.43,-551.34 -1231.43,-1231.45zm1149.33 -964.14l164.18 0 -82.08 -267.21 -82.1 267.21zm1046.2 882.02l267.32 82.12 -267.32 82.12 0 -164.24z"/>
  <path class="fil0 str3" d="M14917.11 6557.94l-1574.99 -1852.48 -1574.99 1852.48m2849.98 0l-1274.99 -1508.16 -1274.99 1508.16m2115.54 1906.16c0,0 0,-679.87 0,-679.87 0,0 -228,0 -228,0 0,0 0,-520.65 0,-520.65 0,-337.34 -275.21,-612.55 -612.55,-612.55 -337.34,0 -612.55,275.21 -612.55,612.55 0,0 0,520.65 0,520.65 0,0 -228,0 -228,0 0,0 0,679.87 0,679.87 560.37,0 1120.74,0 1681.1,0m-2415.54 2193.63l1574.99 -1168.29 1574.99 1168.29m-3149.99 -295.87l1575 -1168.3 1575 1168.3"/>
  <path class="fil0 str0" d="M6793.66 9670.75c0,0 0,-1446.01 0,-1446.01 0,0 -551.57,0 -551.57,0 0,0 0,-396.87 0,-396.87 0,0 551.57,0 551.57,0 0,0 0,-601.88 0,-601.88 0,0 396.87,0 396.87,0 0,0 0,601.88 0,601.88 0,0 551.56,0 551.56,0 0,0 0,396.87 0,396.87 0,0 -551.56,0 -551.56,0 0,0 0,1446.01 0,1446.01 0,0 -396.87,0 -396.87,0m287.83 9739.21c0,0 0,-2460.35 0,-2460.35 0,0 803.19,0 803.19,0 0,0 0,2460.35 0,2460.35 0,0 -803.19,0 -803.19,0m-271.01 -2658.43c0,0 -375.75,-657.18 -375.75,-657.18 -204,154.92 -335.22,392.39 -335.22,657.18 0,0 710.97,0 710.97,0m-231.47 -743.03c0,0 413.08,743.03 413.08,743.03 0,0 413.08,-743.03 413.08,-743.03 -226.29,-133.8 -599.86,-133.78 -826.16,0m594.7 743.03c0,0 375.74,-657.18 375.74,-657.18 204,154.92 335.24,392.39 335.24,657.18 0,0 -710.98,0 -710.98,0m583.05 -2957.69c0,0 0,-246.06 0,-246.06 0,0 -246.07,0 -246.07,0 0,0 0,-317.5 0,-317.5 0,0 246.07,0 246.07,0 0,0 0,-246.06 0,-246.06 0,0 317.49,0 317.49,0 0,0 0,246.06 0,246.06 0,0 246.06,0 246.06,0 0,0 0,317.5 0,317.5 0,0 -246.06,0 -246.06,0 0,0 0,246.06 0,246.06 0,0 -317.49,0 -317.49,0m-605.91 -1428.75c0,0 0,-246.07 0,-246.07 0,0 246.06,0 246.06,0 0,0 0,-317.5 0,-317.5 0,0 -246.06,0 -246.06,0 0,0 0,-246.06 0,-246.06 0,0 -317.5,0 -317.5,0 0,0 0,246.06 0,246.06 0,0 -246.06,0 -246.06,0 0,0 0,317.5 0,317.5 0,0 246.06,0 246.06,0 0,0 0,246.07 0,246.07 0,0 317.5,0 317.5,0m1716.26 -4348.37c0,-539.37 0,-1099.53 0,-1685.01l-1875.01 -2160.07 -1875.01 2160.07c0,585.48 0,1145.65 0,1685.01l-300 0 0 300 300 0c0,1068.32 0,2056.1 0,3000l-300 0 0 300 300 0c0,1032.3 0,2015.86 0,3000l-300 0 0 300 300 0c0,978.36 0,1962.22 0,3000l-300 0 0 300 300 0c0,543.68 0,1103.1 0,1685 1556.63,0 2193.39,0 3750.02,0 0,-581.9 0,-1141.32 0,-1685l300 0 0 -300 -300 0c0,-1037.77 0,-2021.65 0,-3000l300 0 0 -300 -300 0c0,-984.14 0,-1967.7 0,-3000l300 0 0 -300 -300 0c0,-943.89 0,-1931.68 0,-3000l300 0 0 -300 -300 0zm-2957.16 5777.12c0,0 0,-246.06 0,-246.06 0,0 -246.07,0 -246.07,0 0,0 0,-317.5 0,-317.5 0,0 246.07,0 246.07,0 0,0 0,-246.06 0,-246.06 0,0 317.49,0 317.49,0 0,0 0,246.06 0,246.06 0,0 246.06,0 246.06,0 0,0 0,317.5 0,317.5 0,0 -246.06,0 -246.06,0 0,0 0,246.06 0,246.06 0,0 -317.49,0 -317.49,0m189.54 5616.12c0,0 0,-2460.35 0,-2460.35 0,0 803.19,0 803.19,0 0,0 0,2460.35 0,2460.35 0,0 -803.19,0 -803.19,0"/>
  <path class="fil0 str3" d="M6565.66 9670.75c0,0 0,-1218.01 0,-1218.01 0,0 -323.57,0 -323.57,0 -125.58,0 -228,-102.42 -228,-228 0,0 0,-396.87 0,-396.87 0,-125.58 102.42,-228 228,-228 0,0 323.57,0 323.57,0 0,0 0,-373.88 0,-373.88 0,-125.58 102.42,-228 228,-228 0,0 396.87,0 396.87,0 125.58,0 228,102.42 228,228 0,0 0,373.88 0,373.88 0,0 323.56,0 323.56,0 125.58,0 228,102.42 228,228 0,0 0,396.87 0,396.87 0,125.58 -102.42,228 -228,228 0,0 -323.56,0 -323.56,0 0,0 0,1218.01 0,1218.01 0,125.58 -102.42,228 -228,228 0,0 -396.87,0 -396.87,0 -125.58,0 -228,-102.42 -228,-228m-767.16 7080.78c0,-646.75 560.98,-1134.97 1193.59,-1134.97 632.63,0 1193.59,488.23 1193.59,1134.97 0,0 0,2950.19 0,2950.19 0,0 -2387.18,0 -2387.18,0 0,0 0,-2950.19 0,-2950.19zm2503.75 -2957.69c0,0 0,-18.06 0,-18.06 0,0 18.06,0 18.06,0 125.58,0 228,-102.42 228,-228 0,0 0,-317.5 0,-317.5 0,-125.58 -102.42,-228 -228,-228 0,0 -18.06,0 -18.06,0 0,0 0,-18.06 0,-18.06 0,-125.58 -102.42,-228 -228,-228 0,0 -317.5,0 -317.5,0 -125.58,0 -228,102.42 -228,228 0,0 0,18.06 0,18.06 0,0 -18.06,0 -18.06,0 -125.58,0 -228,102.42 -228,228 0,0 0,317.5 0,317.5 0,125.58 102.42,228 228,228 0,0 18.06,0 18.06,0 0,0 0,18.06 0,18.06 0,125.58 102.42,228 228,228 0,0 317.5,0 317.5,0 125.58,0 228,-102.42 228,-228m-1696.89 -1428.75c0,0 0,-18.07 0,-18.07 0,0 -18.07,0 -18.07,0 -125.58,0 -228,-102.42 -228,-228 0,0 0,-317.5 0,-317.5 0,-125.58 102.42,-228 228,-228 0,0 18.07,0 18.07,0 0,0 0,-18.06 0,-18.06 0,-125.58 102.42,-228 228,-228 0,0 317.49,0 317.49,0 125.58,0 228,102.42 228,228 0,0 0,18.06 0,18.06 0,0 18.06,0 18.06,0 125.58,0 228,102.42 228,228 0,0 0,317.5 0,317.5 0,125.58 -102.42,228 -228,228 0,0 -18.06,0 -18.06,0 0,0 0,18.07 0,18.07 0,125.58 -102.42,228 -228,228 0,0 -317.49,0 -317.49,0 -125.58,0 -228,-102.42 -228,-228m-923.42 1428.75c0,0 0,-18.06 0,-18.06 0,0 -18.07,0 -18.07,0 -125.58,0 -228,-102.42 -228,-228 0,0 0,-317.5 0,-317.5 0,-125.58 102.42,-228 228,-228 0,0 18.07,0 18.07,0 0,0 0,-18.06 0,-18.06 0,-125.58 102.42,-228 228,-228 0,0 317.5,0 317.5,0 125.58,0 228,102.42 228,228 0,0 0,18.06 0,18.06 0,0 18.06,0 18.06,0 125.58,0 228,102.42 228,228 0,0 0,317.5 0,317.5 0,125.58 -102.42,228 -228,228 0,0 -18.06,0 -18.06,0 0,0 0,18.06 0,18.06 0,125.58 -102.42,228 -228,228 0,0 -317.5,0 -317.5,0 -125.58,0 -228,-102.42 -228,-228m-377.35 937.28c1125,0 2250,0 3375.01,0m-3375.01 225c1125,0 2250,0 3375.01,0m-3375.01 -4298.39c1125,0 2250,0 3375.01,0m-3375.01 -225c0,0 3375.01,0 3375.01,0m-412.51 -3874.79l-1274.99 -1508.16 -1274.99 1508.16m2849.98 0l-1574.99 -1852.48 -1574.99 1852.48"/>
  <path class="fil0 str0" d="M15517.13 8316.72l-300 0c0,953.63 0,1969.95 0,3000l300 0 0 300 -300 0c0,1006.61 0,2021.75 0,3000l300 0 0 300 -300 0c0,1071.01 0,2091.38 0,3000l300 0 0 300 -300 0c0,629.27 0,1198.3 0,1685l-1125.01 0c0,-414.21 -335.79,-750 -750,-750 -414.21,0 -750,335.79 -750,750l-1125.01 0c0,-486.69 0,-1055.73 0,-1685l-300 0 0 -300 300 0c0,-908.62 0,-1928.99 0,-3000l-300 0 0 -300 300 0c0,-978.24 0,-1993.39 0,-3000l-300 0 0 -300 300 0c0,-1030.04 0,-2046.37 0,-3000l-300 0 0 -300 300 0c0,-592.77 0,-1158.53 0,-1685.01l1875.01 -2160.07 1875.01 2160.07c0,526.48 0,1092.24 0,1685.01l300 0 0 300zm-2559.56 -307.31l-228 0 0 223.87 1225.1 0 0 -223.87 -228 0 0 -748.65c0,-211.49 -173.05,-384.55 -384.55,-384.55 -211.5,0 -384.55,173.06 -384.55,384.55l0 748.65z"/>
  <path class="fil0 str0" d="M19542.13 19601.71l-300 0 0 -300 300 0 0 300zm-1724.99 -12200l300 0 0 -300 -300 0 0 300zm1492.91 1935.54l-207.28 -674.75 -674.74 -207.27c39.13,469.2 412.86,842.69 882.02,882.02zm0 -1928.28l-207.28 674.75 -674.74 207.27c39.13,-469.21 412.86,-842.69 882.02,-882.02zm232.08 7690.27l-300 0 0 -300 300 0 0 300zm1425 -7697.53l-300 0 0 -300 300 0 0 300zm-1492.91 1935.54l207.28 -674.75 674.74 -207.27c-39.13,469.2 -412.86,842.69 -882.02,882.02zm0 -1928.28l207.28 674.75 674.74 207.27c-39.13,-469.21 -412.86,-842.69 -882.02,-882.02zm1792.91 -742.26l-1875 -2155.07 -1875 2155.07c0,461.92 0.01,911.51 0.01,1350.01l300 0 0 300 -300 0c0,1058.36 0,2052.35 0,3000l300 0 0 300 -300 0c0,1046.91 0,2038.52 0,3000l300 0 0 300 -300 0c0,1021.2 0,2010.96 0,3000l300 0 0 300 -300 0c0,559.06 0,1118.88 0,1685l3749.99 0c0,-566.12 0,-1125.94 0,-1685l-300 0 0 -300 300 0c0,-989.03 0,-1978.8 0,-3000l-300 0 0 -300 300 0c0,-961.48 0,-1953.09 0,-3000l-300 0 0 -300 300 0c0,-947.66 0,-1941.64 0,-3000l-300 0 0 -300 300 0c0,-438.5 0,-888.09 0,-1350.01z"/>
  <path class="fil0 str0" d="M25292.13 19601.71l-300 0 0 -300 300 0 0 300zm-1724.99 -12200l300 0 0 -300 -300 0 0 300zm1492.91 1935.54l-207.28 -674.75 -674.74 -207.27c39.13,469.2 412.86,842.69 882.02,882.02zm0 -1928.28l-207.28 674.75 -674.74 207.27c39.13,-469.21 412.86,-842.69 882.02,-882.02zm232.08 7690.27l-300 0 0 -300 300 0 0 300zm1425 -7697.53l-300 0 0 -300 300 0 0 300zm-1492.91 1935.54l207.28 -674.75 674.74 -207.27c-39.13,469.2 -412.86,842.69 -882.02,882.02zm0 -1928.28l207.28 674.75 674.74 207.27c-39.13,-469.21 -412.86,-842.69 -882.02,-882.02zm1792.91 -742.26l-1875 -2155.07 -1875 2155.07c0,425.55 0.01,877.87 0.01,1350.01l300 0 0 300 -300 0c0,946.41 0,1964.15 0,3000l300 0 0 300 -300 0c0,1003.88 0,2019.89 0,3000l300 0 0 300 -300 0c0,1070.91 0,2092.3 0,3000l300 0 0 300 -300 0c0,631.58 0,1201.12 0,1685l3749.99 0c0,-483.88 0,-1053.42 0,-1685l-300 0 0 -300 300 0c0,-907.7 0,-1929.09 0,-3000l-300 0 0 -300 300 0c0,-980.11 0,-1996.12 0,-3000l-300 0 0 -300 300 0c0,-1035.85 0,-2053.59 0,-3000l-300 0 0 -300 300 0c0,-472.14 0,-924.46 0,-1350.01z"/>
 </g>
</svg>
